<?xml version="1.0" encoding="UTF-8" standalone="no"?>
<!DOCTYPE svg PUBLIC "-//W3C//DTD SVG 1.1//EN" "http://www.w3.org/Graphics/SVG/1.1/DTD/svg11.dtd">
<svg width="100%" height="100%" viewBox="0 0 1024 1024" version="1.1" xmlns="http://www.w3.org/2000/svg" xmlns:xlink="http://www.w3.org/1999/xlink" xml:space="preserve" xmlns:serif="http://www.serif.com/" style="fill-rule:evenodd;clip-rule:evenodd;stroke-linecap:round;stroke-linejoin:round;stroke-miterlimit:1.5;">
    <path d="M340.52,445.024C362.468,437.707 351.74,419.97 375.266,417.831C425.001,413.31 668.738,401.609 686.471,419.342C708.314,441.185 694.576,450.654 663.81,452.577C582.857,457.637 305.928,436.376 346.562,446.535" style="fill:none;stroke:rgb(225,193,110);stroke-opacity:0.49;stroke-width:83.33px;"/>
    <path d="M389.958,469.828C388.676,468.546 376.906,456.776 372.554,455.325C367.49,453.637 341.832,418.289 375.455,409.883C397.848,404.285 391.525,426.208 416.063,428.253C496.857,434.986 633.854,405.3 654.875,426.32C704.25,475.691 632.901,475.351 588.162,467.894C547.871,461.179 548.1,462.093 353.217,462.093" style="fill:none;stroke:rgb(225,193,110);stroke-opacity:0.66;stroke-width:83.33px;"/>
    <g transform="matrix(1,0,0,1,-6.358,-82.465757)">
        <path d="M512.553,844.466C522.162,855.389 604.229,909.991 552.529,986.183C509.47,1049.639 478.05,1037.611 467.224,1139.927" style="fill:none;stroke:rgb(37,28,27);stroke-width:43.33px;"/>
    </g>
    <path d="M659.709,474.662C659.817,472.178 660.906,447.13 662.61,443.723" style="fill:none;stroke:rgb(225,193,110);stroke-opacity:0.66;stroke-width:83.33px;"/>
    <path d="M662.61,439.855C662.61,465.481 663.782,465.08 661.643,484.331C660.165,466.595 658.585,467.285 656.809,449.524" style="fill:none;stroke:rgb(225,193,110);stroke-opacity:0.66;stroke-width:83.33px;"/>
    <path d="M706.118,466.927C691.234,481.811 622.165,489.111 622.002,489.165" style="fill:none;stroke:rgb(225,193,110);stroke-opacity:0.66;stroke-width:83.33px;"/>
    <path d="M548.521,423.419C583.368,466.977 590.582,457.502 640.372,482.397C644.24,484.331 635.912,481.555 635.538,481.43" style="fill:none;stroke:rgb(225,193,110);stroke-width:83.33px;"/>
    <path d="M666.477,420.518C653.381,427.067 619.234,420.563 619.101,420.518" style="fill:none;stroke:rgb(225,193,110);stroke-width:83.33px;"/>
    <path d="M569.792,421.485C534.559,442.625 699.409,451.783 710.952,452.425C796.318,457.167 458.07,455.158 433.466,452.425C394.523,448.098 380.469,441.181 380.289,440.822" style="fill:none;stroke:rgb(225,193,110);stroke-width:83.33px;"/>
    <path d="M394.792,428.253C416.985,430.719 415.645,434.433 441.201,440.822C487.246,452.333 487.674,448.948 629.737,463.06" style="fill:none;stroke:rgb(225,193,110);stroke-width:83.33px;"/>
    <path d="M517.582,440.822C464.314,423.066 440.052,437.725 375.57,430.144L375.191,421.573L367.72,420.518C436.78,414.24 436.092,411.817 505.98,411.817C522.081,411.817 683.019,401.497 696.449,441.789C708.766,478.741 388.928,454.187 384.157,453.391" style="fill:none;stroke:rgb(225,193,110);stroke-width:83.33px;"/>
    <g transform="matrix(1.171297,0,0,1.085657,-116.774136,-193.856184)">
        <path d="M760,512L771.601,524.516L771.601,627.138C771.601,767.033 666.485,880.441 536.818,880.441C474.55,880.441 414.832,853.754 370.802,806.25C326.772,758.747 302.036,694.318 302.036,627.139L302.036,524.608L313.722,512L760,512ZM621.06,600.212L621.06,607.459L633.165,607.459L633.165,557.803L621.06,557.803L621.06,587.702C621.06,590.221 620.446,592.159 619.22,593.514C617.993,594.869 616.241,595.547 613.965,595.547C611.689,595.547 609.923,594.885 608.666,593.562C607.41,592.238 606.782,590.381 606.782,587.989L606.782,557.803L594.633,557.803L594.633,588.467C594.633,594.718 595.978,599.565 598.668,603.01C601.358,606.454 605.171,608.176 610.108,608.176C613.182,608.176 615.687,607.188 617.623,605.21C619.115,603.686 620.261,602.02 621.06,600.212ZM525.284,580.478L538.985,580.478C543.035,580.478 546.58,579.601 549.619,577.847C552.658,576.093 555.023,573.621 556.713,570.432C558.404,567.243 559.249,563.511 559.249,559.238C559.249,554.932 558.406,551.185 556.722,547.996C555.037,544.807 552.678,542.327 549.646,540.557C546.613,538.787 543.06,537.902 538.985,537.902L513.135,537.902L513.135,607.459L525.284,607.459L525.284,580.478ZM525.284,550.531L539.296,550.531C541.516,550.531 543.298,551.321 544.641,552.899C545.984,554.478 546.656,556.591 546.656,559.238C546.656,561.81 545.976,563.888 544.617,565.472C543.257,567.057 541.483,567.849 539.296,567.849L525.284,567.849L525.284,550.531ZM669.967,601.231L669.967,606.933C669.967,609.629 669.14,611.715 667.484,613.189C665.829,614.663 663.774,615.4 661.321,615.4C659.754,615.4 658.247,615.065 656.798,614.395C655.35,613.726 654.108,612.801 653.074,611.621L644.915,619.705C646.508,622.225 648.749,624.178 651.638,625.566C654.528,626.953 657.799,627.647 661.454,627.647C668.032,627.647 673.121,625.757 676.719,621.978C680.317,618.198 682.117,612.865 682.117,605.976L682.117,557.803L669.967,557.803L669.967,564.255C668.874,562.265 667.548,560.664 665.99,559.453C663.959,557.874 661.723,557.085 659.281,557.085C654.374,557.085 650.568,558.972 647.864,562.746C645.159,566.52 643.806,571.857 643.806,578.756L643.806,586.697C643.806,593.517 645.159,598.803 647.864,602.552C650.568,606.302 654.374,608.176 659.281,608.176C661.971,608.176 664.299,607.435 666.265,605.952C667.833,604.769 669.067,603.196 669.967,601.231ZM669.967,577.177L669.967,588.323C669.967,589.95 669.699,591.336 669.164,592.482C668.628,593.627 667.853,594.504 666.837,595.113C665.822,595.721 664.589,596.025 663.139,596.025C660.857,596.025 659.09,595.215 657.836,593.595C656.582,591.974 655.956,589.675 655.956,586.697L655.956,578.804C655.956,575.774 656.582,573.422 657.836,571.748C659.09,570.073 660.857,569.236 663.139,569.236C664.589,569.236 665.822,569.545 666.837,570.162C667.853,570.78 668.628,571.68 669.164,572.865C669.699,574.049 669.967,575.487 669.967,577.177ZM580.931,537.902L568.782,537.902L568.782,594.303C568.782,598.481 569.802,601.718 571.842,604.014C573.881,606.311 576.749,607.459 580.444,607.459L586.651,607.459L586.651,594.829L584.612,594.829C583.443,594.829 582.538,594.495 581.895,593.825C581.253,593.155 580.931,592.23 580.931,591.05L580.931,537.902ZM418.421,608.176C425.917,608.176 431.722,605.92 435.838,601.407C439.954,596.895 442.013,590.524 442.013,582.296L442.013,537.902L429.863,537.902L429.863,582.631C429.863,586.617 428.866,589.711 426.87,591.911C424.875,594.112 422.059,595.212 418.424,595.212C414.813,595.212 412.018,594.112 410.04,591.911C408.061,589.711 407.072,586.617 407.072,582.631L407.072,537.902L394.923,537.902L394.923,582.296C394.923,590.524 396.973,596.895 401.074,601.407C405.175,605.92 410.957,608.176 418.421,608.176ZM475.711,607.459C481.357,607.459 486.065,606.414 489.834,604.325C493.603,602.236 496.433,599.318 498.325,595.571C500.217,591.824 501.163,587.478 501.163,582.535L501.163,562.826C501.163,554.916 498.953,548.785 494.534,544.432C490.115,540.079 483.855,537.902 475.756,537.902L454.428,537.902L454.428,607.459L475.711,607.459ZM466.577,550.531L476.022,550.531C480.012,550.531 483.101,551.568 485.289,553.641C487.476,555.714 488.57,558.648 488.57,562.443L488.57,582.918C488.57,586.681 487.476,589.607 485.289,591.696C483.101,593.785 480.012,594.829 476.022,594.829L466.577,594.829L466.577,550.531Z" style="fill:rgb(0,153,255);"/>
        <clipPath id="_clip1">
            <path d="M760,512L771.601,524.516L771.601,627.138C771.601,767.033 666.485,880.441 536.818,880.441C474.55,880.441 414.832,853.754 370.802,806.25C326.772,758.747 302.036,694.318 302.036,627.139L302.036,524.608L313.722,512L760,512ZM621.06,600.212L621.06,607.459L633.165,607.459L633.165,557.803L621.06,557.803L621.06,587.702C621.06,590.221 620.446,592.159 619.22,593.514C617.993,594.869 616.241,595.547 613.965,595.547C611.689,595.547 609.923,594.885 608.666,593.562C607.41,592.238 606.782,590.381 606.782,587.989L606.782,557.803L594.633,557.803L594.633,588.467C594.633,594.718 595.978,599.565 598.668,603.01C601.358,606.454 605.171,608.176 610.108,608.176C613.182,608.176 615.687,607.188 617.623,605.21C619.115,603.686 620.261,602.02 621.06,600.212ZM525.284,580.478L538.985,580.478C543.035,580.478 546.58,579.601 549.619,577.847C552.658,576.093 555.023,573.621 556.713,570.432C558.404,567.243 559.249,563.511 559.249,559.238C559.249,554.932 558.406,551.185 556.722,547.996C555.037,544.807 552.678,542.327 549.646,540.557C546.613,538.787 543.06,537.902 538.985,537.902L513.135,537.902L513.135,607.459L525.284,607.459L525.284,580.478ZM525.284,550.531L539.296,550.531C541.516,550.531 543.298,551.321 544.641,552.899C545.984,554.478 546.656,556.591 546.656,559.238C546.656,561.81 545.976,563.888 544.617,565.472C543.257,567.057 541.483,567.849 539.296,567.849L525.284,567.849L525.284,550.531ZM669.967,601.231L669.967,606.933C669.967,609.629 669.14,611.715 667.484,613.189C665.829,614.663 663.774,615.4 661.321,615.4C659.754,615.4 658.247,615.065 656.798,614.395C655.35,613.726 654.108,612.801 653.074,611.621L644.915,619.705C646.508,622.225 648.749,624.178 651.638,625.566C654.528,626.953 657.799,627.647 661.454,627.647C668.032,627.647 673.121,625.757 676.719,621.978C680.317,618.198 682.117,612.865 682.117,605.976L682.117,557.803L669.967,557.803L669.967,564.255C668.874,562.265 667.548,560.664 665.99,559.453C663.959,557.874 661.723,557.085 659.281,557.085C654.374,557.085 650.568,558.972 647.864,562.746C645.159,566.52 643.806,571.857 643.806,578.756L643.806,586.697C643.806,593.517 645.159,598.803 647.864,602.552C650.568,606.302 654.374,608.176 659.281,608.176C661.971,608.176 664.299,607.435 666.265,605.952C667.833,604.769 669.067,603.196 669.967,601.231ZM669.967,577.177L669.967,588.323C669.967,589.95 669.699,591.336 669.164,592.482C668.628,593.627 667.853,594.504 666.837,595.113C665.822,595.721 664.589,596.025 663.139,596.025C660.857,596.025 659.09,595.215 657.836,593.595C656.582,591.974 655.956,589.675 655.956,586.697L655.956,578.804C655.956,575.774 656.582,573.422 657.836,571.748C659.09,570.073 660.857,569.236 663.139,569.236C664.589,569.236 665.822,569.545 666.837,570.162C667.853,570.78 668.628,571.68 669.164,572.865C669.699,574.049 669.967,575.487 669.967,577.177ZM580.931,537.902L568.782,537.902L568.782,594.303C568.782,598.481 569.802,601.718 571.842,604.014C573.881,606.311 576.749,607.459 580.444,607.459L586.651,607.459L586.651,594.829L584.612,594.829C583.443,594.829 582.538,594.495 581.895,593.825C581.253,593.155 580.931,592.23 580.931,591.05L580.931,537.902ZM418.421,608.176C425.917,608.176 431.722,605.92 435.838,601.407C439.954,596.895 442.013,590.524 442.013,582.296L442.013,537.902L429.863,537.902L429.863,582.631C429.863,586.617 428.866,589.711 426.87,591.911C424.875,594.112 422.059,595.212 418.424,595.212C414.813,595.212 412.018,594.112 410.04,591.911C408.061,589.711 407.072,586.617 407.072,582.631L407.072,537.902L394.923,537.902L394.923,582.296C394.923,590.524 396.973,596.895 401.074,601.407C405.175,605.92 410.957,608.176 418.421,608.176ZM475.711,607.459C481.357,607.459 486.065,606.414 489.834,604.325C493.603,602.236 496.433,599.318 498.325,595.571C500.217,591.824 501.163,587.478 501.163,582.535L501.163,562.826C501.163,554.916 498.953,548.785 494.534,544.432C490.115,540.079 483.855,537.902 475.756,537.902L454.428,537.902L454.428,607.459L475.711,607.459ZM466.577,550.531L476.022,550.531C480.012,550.531 483.101,551.568 485.289,553.641C487.476,555.714 488.57,558.648 488.57,562.443L488.57,582.918C488.57,586.681 487.476,589.607 485.289,591.696C483.101,593.785 480.012,594.829 476.022,594.829L466.577,594.829L466.577,550.531Z"/>
        </clipPath>
        <g clip-path="url(#_clip1)">
            <g transform="matrix(0.853755,0,0,0.921102,99.696454,178.561234)">
                <path d="M780.528,388.214C779.461,751.559 613.757,780.736 444.365,1047.62" style="fill:none;stroke:rgb(0,92,153);stroke-opacity:0.33;stroke-width:145px;"/>
            </g>
            <g transform="matrix(0.853755,0,0,0.921102,99.696454,178.561234)">
                <path d="M255.678,361.096C244.015,370.789 243.974,370.62 229.281,390.121" style="fill:none;stroke:white;stroke-opacity:0.33;stroke-width:50px;"/>
            </g>
            <g transform="matrix(0.853755,0,0,0.921102,99.696454,178.561234)">
                <path d="M237.141,392.83C249.301,530.099 253.723,529.987 323.218,686.532C339.476,723.155 361.896,808.729 535.83,871.414" style="fill:none;stroke:rgb(71,181,255);stroke-opacity:0.33;stroke-width:145px;"/>
            </g>
            <g transform="matrix(0.853755,0,0,0.921102,99.696454,178.561234)">
                <path d="M345.798,379.572C359.311,466.27 362.185,497.076 418.921,644.088C452.148,730.183 469.428,743.158 499.172,768.472" style="fill:none;stroke:rgb(0,144,240);stroke-opacity:0.33;stroke-width:145px;"/>
            </g>
            <g transform="matrix(0.853755,0,0,0.921102,99.696454,178.561234)">
                <path d="M705.799,366.432C738.104,519.149 682.879,572.201 621.395,705.458" style="fill:none;stroke:rgb(0,144,240);stroke-opacity:0.33;stroke-width:145px;"/>
            </g>
            <g transform="matrix(0.853755,0,0,0.921102,99.696454,178.561234)">
                <path d="M234.409,457.588C234.324,464.714 208.017,599.776 344.527,707.454C411.909,760.604 430.322,745.209 675.381,803.999" style="fill:none;stroke:white;stroke-opacity:0.33;stroke-width:50px;"/>
            </g>
            <g transform="matrix(0.853755,0,0,0.921102,99.696454,178.561234)">
                <path d="M736.666,352.792C738.396,353.658 808.915,467.319 777.273,404.036C777.273,404.034 763.041,361.339 761.804,357.627C756.627,342.096 763.539,362.264 774.373,373.096C782.512,381.235 792.848,539.512 785.975,563.566C782.314,576.379 782.822,576.102 782.108,589.671" style="fill:none;stroke:black;stroke-opacity:0.12;stroke-width:20.83px;"/>
            </g>
        </g>
    </g>
    <g transform="matrix(1,0,0,1,123.914001,0)">
        <path d="M236.673,205.094C257.982,205.094 275.257,222.369 275.257,243.678L275.257,362L198.086,362L198.086,243.678C198.086,222.369 215.361,205.094 236.67,205.094L236.673,205.094Z" style="fill:rgb(225,193,110);"/>
        <clipPath id="_clip2">
            <path d="M236.673,205.094C257.982,205.094 275.257,222.369 275.257,243.678L275.257,362L198.086,362L198.086,243.678C198.086,222.369 215.361,205.094 236.67,205.094L236.673,205.094Z"/>
        </clipPath>
        <g clip-path="url(#_clip2)">
            <g transform="matrix(1,0,0,1,-423.193289,-1.519673)">
                <path d="M627.648,372.991C632.808,372.991 682.963,372.991 692.082,369.952" style="fill:none;stroke:black;stroke-opacity:0.17;stroke-width:43.33px;"/>
            </g>
            <g transform="matrix(1,0,0,1,-123.914001,0)">
                <path d="M326.081,356.251C331.258,358.839 383.685,357.032 388.692,356.859" style="fill:none;stroke:black;stroke-opacity:0.17;stroke-width:43.33px;"/>
            </g>
            <g transform="matrix(1,0,0,1,-123.914001,0)">
                <path d="M377.064,175.666C374.842,180.11 360.574,237.692 310.061,257.897C234.112,288.276 236.683,296.909 169.964,303.581" style="fill:none;stroke:white;stroke-opacity:0.33;stroke-width:91.67px;"/>
            </g>
        </g>
    </g>
    <g transform="matrix(1,0,0,1,426.743383,0)">
        <path d="M236.673,205.094C257.982,205.094 275.257,222.369 275.257,243.678L275.257,362L198.086,362L198.086,243.678C198.086,222.369 215.361,205.094 236.67,205.094L236.673,205.094Z" style="fill:rgb(225,193,110);"/>
        <clipPath id="_clip3">
            <path d="M236.673,205.094C257.982,205.094 275.257,222.369 275.257,243.678L275.257,362L198.086,362L198.086,243.678C198.086,222.369 215.361,205.094 236.67,205.094L236.673,205.094Z"/>
        </clipPath>
        <g clip-path="url(#_clip3)">
            <g transform="matrix(1,0,0,1,-426.743383,0)">
                <path d="M627.648,372.991C632.808,372.991 682.963,372.991 692.082,369.952" style="fill:none;stroke:black;stroke-opacity:0.17;stroke-width:43.33px;"/>
            </g>
            <g transform="matrix(1,0,0,1,-426.743383,0)">
                <path d="M632.447,362.33C663.475,364.546 693.604,360.929 695.666,359.898" style="fill:none;stroke:black;stroke-opacity:0.17;stroke-width:43.33px;"/>
            </g>
            <g transform="matrix(1,0,0,1,-426.743383,0)">
                <path d="M626.802,198.508C613.884,211.426 616.762,251.092 527.821,280.739" style="fill:none;stroke:white;stroke-opacity:0.33;stroke-width:91.67px;"/>
            </g>
        </g>
    </g>
    <path d="M489.934,762.773C490.753,763.046 491.766,768.394 493.443,768.729C494.501,768.941 494.772,769.687 497.114,769.219C500.261,768.589 502.875,767.173 509.434,766.445C516.895,765.616 532.709,764.638 532.849,764.568" style="fill:none;stroke:rgb(0,153,255);stroke-opacity:0.33;stroke-width:12.5px;"/>
    <path d="M491.6,765.562C493.106,766.064 514.54,766.803 519.058,765.673C519.323,765.607 530.52,764.148 532.37,764.225" style="fill:none;stroke:rgb(0,153,255);stroke-opacity:0.33;stroke-width:12.5px;"/>
    <path d="M492.38,769.127C500.298,769.621 500.259,768.798 513.767,768.235C517.118,768.096 517.095,768.07 520.451,767.734C526.694,767.11 526.689,767.734 532.927,767.344L532.537,767.344" style="fill:none;stroke:rgb(0,153,255);stroke-opacity:0.33;stroke-width:12.5px;"/>
    <path d="M497.17,775.643C495.922,776.267 524.527,773.456 527.524,773.081C532.901,772.409 536.247,767.901 536.658,767.901" style="fill:none;stroke:rgb(0,153,255);stroke-opacity:0.33;stroke-width:12.5px;"/>
    <path d="M502.572,779.765C507.269,780.704 532.171,778.449 534.542,776.868C535.043,776.534 536.333,775.889 536.491,775.81C538.759,774.677 538.773,773.194 539.889,772.078C539.951,772.016 539.912,772.032 539.945,771.967" style="fill:none;stroke:rgb(0,153,255);stroke-opacity:0.33;stroke-width:12.5px;"/>
    <path d="M491.505,774.669C491.523,774.678 494.18,777.366 496.181,778.034" style="fill:none;stroke:rgb(0,153,255);stroke-opacity:0.33;stroke-width:4.17px;"/>
    <path d="M486.509,760.513C486.767,761.287 486.872,761.233 487.008,762.046C487.409,764.456 487.627,764.412 489.039,765.824C490.607,767.392 491.116,767.533 493.673,766.894C494.643,766.651 496.887,764.582 501.587,764.22C501.766,764.207 505.439,763.924 503.654,763.329C500.553,762.296 500.467,763.059 492.675,762.83C490.594,762.769 490.628,762.643 488.576,762.438" style="fill:none;stroke:rgb(0,153,255);stroke-opacity:0.33;stroke-width:4.17px;"/>
    <path d="M497.226,774.394C497.457,775.546 497.398,775.523 497.728,776.678C498.07,777.877 497.715,777.92 498.118,779.128" style="fill:none;stroke:rgb(0,153,255);stroke-opacity:0.33;stroke-width:4.17px;"/>
    <path d="M494.915,779.243C493.574,778.908 492.082,775.92 492.019,775.857C491.74,775.578 491.244,774.636 491.083,774.475C490.91,774.303 488.56,770.639 488.454,770.109C488.259,769.132 487.417,767.611 487.34,766.455C487.143,763.488 487.51,763.534 487.697,761.287" style="fill:none;stroke:rgb(0,153,255);stroke-opacity:0.33;stroke-width:4.17px;"/>
    <path d="M487.162,761.465C487.248,763.777 487.67,763.674 488.232,765.921C489.631,771.516 491.864,773.587 492.108,774.565C492.212,774.98 494.268,777.036 494.47,777.238C495.154,777.923 495.34,777.663 496.029,778.352C496.683,779.005 496.935,779.08 497.143,779.288" style="fill:none;stroke:rgb(0,153,255);stroke-opacity:0.33;stroke-width:4.17px;"/>
    <path d="M535.992,761.826C536.44,763.621 541.247,766.25 537.623,767.156C533.3,768.237 533.553,769.32 526.854,769.767C524.586,769.918 504.826,771.236 498.57,772.487C498.253,772.55 498.299,772.459 498.027,772.595C497.162,773.028 498.169,773.594 497.483,774.227C497.034,774.642 493.943,773.615 493.566,772.487C493.053,770.946 491.882,770.673 493.24,769.767C499.027,765.909 501.489,769.099 528.159,764.654C539.607,762.746 523.452,761.68 517.825,762.805C501.708,766.028 492.308,763.613 492.261,763.567C490.796,762.101 496.858,760.512 506.729,761.608C513.549,762.366 513.49,761.644 520.327,761.391C520.367,761.389 520.327,761.391 520.819,761.287C507.477,762.058 507.608,763.343 494.195,763.355C505.599,762.694 505.466,761.173 525.222,761.173C532.387,761.173 533.937,759.458 534.686,760.956C535.438,762.46 538.555,762.635 535.339,765.851C532.31,768.88 530.642,767.686 513.582,768.462C498.455,769.149 497.529,767.716 496.286,770.202C494.815,773.144 492.194,764.511 491.935,766.068C491.053,771.357 496.199,768.549 497.048,771.943C497.324,773.049 497.931,774.656 496.612,775.315C496.156,775.543 496.245,775.627 496.395,776.076C496.681,776.934 496.864,775.458 495.089,773.683C493.735,772.328 493.16,773.277 491.826,771.943C489.388,769.505 495.462,773.777 495.633,775.315C496.124,779.729 497.559,778.97 497.7,778.687C498.917,776.254 498.767,776.228 499.985,773.792C500.813,772.136 507.563,770.003 508.035,769.767" style="fill:none;stroke:rgb(0,153,255);stroke-opacity:0.33;stroke-width:4.17px;"/>
    <path d="M486.143,764.127C485.458,764.356 485.881,766.953 487.257,767.87C487.309,767.904 488.912,770.428 489.53,772.281C490.967,776.593 496.803,779.39 497.862,781.861L497.193,781.415" style="fill:none;stroke:rgb(0,153,255);stroke-opacity:0.33;stroke-width:4.17px;"/>
    <path d="M485.698,764.261C486.653,769.991 488.202,770.028 488.906,771.435C488.992,771.608 491.019,773.513 491.713,774.554C491.723,774.568 492.709,775.619 492.871,775.89C492.89,775.921 494.706,778.052 494.876,778.564C494.877,778.567 497.053,781.278 497.862,781.683" style="fill:none;stroke:rgb(0,153,255);stroke-opacity:0.33;stroke-width:4.17px;"/>
    <path d="M485.502,760.905C485.77,761.173 485.802,761.072 486.304,761.173C487.506,761.413 492.61,761.368 493.344,761.306" style="fill:none;stroke:rgb(0,153,255);stroke-opacity:0.33;stroke-width:4.17px;"/>
    <path d="M485.769,760.727C486.047,761.005 497.084,760.545 498.067,760.504" style="fill:none;stroke:rgb(0,153,255);stroke-opacity:0.33;stroke-width:4.17px;"/>
    <path d="M485.636,761.262C486.094,761.22 486.081,761.529 491.383,761.529C491.972,761.529 491.965,761.416 498.735,761.217" style="fill:none;stroke:rgb(0,153,255);stroke-opacity:0.33;stroke-width:4.17px;"/>
    <path d="M485.814,761.44C485.841,761.521 486.476,763.932 486.527,764.336C486.944,767.674 487.309,767.575 487.462,768.035" style="fill:none;stroke:rgb(0,153,255);stroke-opacity:0.33;stroke-width:4.17px;"/>
    <path d="M535.275,761.866C536.754,763.345 537.79,763.574 538.436,764.866C538.597,765.188 539.859,766.45 539.99,766.581C540.314,766.904 543.874,770.465 544.116,770.546C544.239,770.587 544.975,771.351 544.598,770.974C544.109,770.486 544.148,770.482 543.955,770.385" style="fill:none;stroke:rgb(0,153,255);stroke-opacity:0.33;stroke-width:4.17px;"/>
    <path d="M535.597,762.187C536.054,763.559 536.211,763.499 541.972,769.26C542.129,769.417 541.983,769.538 543.794,771.349C543.925,771.481 544.431,771.825 544.062,771.456C543.956,771.35 544.018,771.344 543.901,771.189" style="fill:none;stroke:rgb(0,153,255);stroke-opacity:0.33;stroke-width:4.17px;"/>
    <path d="M535.811,762.884C537.476,764.549 537.547,764.459 537.793,764.706C539.005,765.918 539.328,765.49 541.383,767.545C542.314,768.476 544.2,771.095 544.33,770.706" style="fill:none;stroke:rgb(0,153,255);stroke-opacity:0.33;stroke-width:4.17px;"/>
    <path d="M535.221,762.241C535.416,762.306 538.573,768.096 540.258,768.938C540.665,769.142 542.788,771.246 543.419,771.456C543.708,771.553 543.855,771.942 543.526,771.778C542.79,771.41 542.872,771.292 542.08,771.028C538.654,769.886 537.572,771.061 536.936,769.153C536.773,768.663 536.644,768.729 533.989,763.42C533.603,762.647 533.966,761.653 532.596,761.598C531.226,761.543 528.273,761.988 524.345,761.384C520.151,760.738 510.928,761.44 507.093,761.919C501.193,762.657 488.872,761.528 488.608,763.902C488.54,764.513 487.849,765.975 490.001,765.616C498.927,764.129 509.741,762.419 516.898,762.777C521.96,763.03 521.929,763.098 526.97,763.098C529.234,763.098 538.094,765.612 540.097,768.617C540.629,769.415 540.734,769.304 541.276,770.117C541.402,770.307 542.276,771.617 542.615,772.635C542.668,772.792 542.562,772.474 540.954,771.403C538.779,769.953 538.956,769.779 535.489,766.313" style="fill:none;stroke:rgb(0,153,255);stroke-opacity:0.33;stroke-width:4.17px;"/>
    <path d="M651.348,209.162C650.182,208.774 642.667,212.135 641.799,213.871C640.374,216.72 639.097,215.395 635.389,219.103C634.987,219.506 632.485,223.368 632.38,223.682C631.639,225.905 629.414,229.243 629.11,229.699C628.917,229.989 627.893,243.296 627.802,244.48C626.856,256.78 629.598,270.45 626.494,276.658C625.867,277.913 628.247,273.153 626.494,259.13C625.632,252.234 625.806,233.527 631.465,227.867C638.044,221.289 643.528,214.256 646.115,213.609C646.639,213.479 648.778,211.339 648.993,211.124C653.766,206.351 671.921,206.844 671.884,206.807" style="fill:none;stroke:white;stroke-opacity:0.33;stroke-width:4.17px;"/>
    <path d="M324.77,300.013C320.659,287.68 325.697,277.457 324.77,246.873C324.39,234.314 325.714,234.509 329.88,226.178C335.544,214.851 342.202,210.052 359.771,208.295C366.724,207.599 377.149,205.75 380.465,212.382C382.509,216.47 387.195,221.156 387.874,221.835C393.882,227.843 397.015,237.533 397.583,238.953C397.741,239.348 397.424,239.835 397.583,240.23" style="fill:none;stroke:white;stroke-opacity:0.33;stroke-width:4.17px;"/>
    <path d="M397.327,239.464C391.927,228.664 394.016,220.476 381.998,216.47C381.56,216.324 357.303,195.69 337.033,215.959C328.603,224.389 328.321,224.953 327.836,225.923C324.338,232.919 322.726,232.601 322.726,250.449C322.726,254.464 322.726,290.56 326.048,300.524" style="fill:none;stroke:white;stroke-opacity:0.33;stroke-width:4.17px;"/>
</svg>
